<svg width="42" height="43" viewBox="0 0 42 43" fill="none" xmlns="http://www.w3.org/2000/svg">
<g clip-path="url(#clip0_60_483)">
<path d="M12.6705 32.7693L14.11 36.2733L1.30664 41.1944L6.20364 28.4046L31.3864 3.35018C31.3864 3.35018 34.884 -0.153842 36.9821 1.94415L39.0813 4.04616L40.5629 5.47529C42.6581 7.58433 39.1595 11.0793 39.1595 11.0793L14.106 36.2733" stroke="#EF0097" stroke-width="1.5" stroke-miterlimit="10"/>
<path d="M34.5338 7.72792L30.8076 3.92261" stroke="#EF0097" stroke-width="1.5" stroke-miterlimit="10"/>
<path d="M32.6712 9.87221L28.7285 5.99158" stroke="#EF0097" stroke-width="1.5" stroke-miterlimit="10"/>
<path d="M27.8633 17.5399L34.1066 11.2811" stroke="#EF0097" stroke-width="1.5" stroke-miterlimit="10"/>
<path d="M6.20312 28.4016L9.6987 29.8488V32.7874L12.67 32.7693L22.4129 23.0034" stroke="#EF0097" stroke-width="1.5" stroke-miterlimit="10"/>
<path d="M9.69922 29.8489L31.1789 8.40399" stroke="#EF0097" stroke-width="1.5" stroke-miterlimit="10"/>
<path d="M34.5342 7.72699L38.5801 11.6588" stroke="#EF0097" stroke-width="1.5" stroke-miterlimit="10"/>
<path d="M32.6719 9.87219L36.5123 13.7398" stroke="#EF0097" stroke-width="1.5" stroke-miterlimit="10"/>
<path d="M3.16699 36.1418L6.20244 39.3606" stroke="#EF0097" stroke-width="1.5" stroke-miterlimit="10"/>
</g>
<defs>
<clipPath id="clip0_60_483">
<rect width="42" height="42" fill="white" transform="translate(0 0.5)"/>
</clipPath>
</defs>
</svg>
