<svg width="43" height="41" viewBox="0 0 43 41" fill="none" xmlns="http://www.w3.org/2000/svg">
<path d="M21.5 4.52301L3.96882 36.4777C3.96881 36.4777 3.96881 36.4777 3.96881 36.4777H39.0312C39.0312 36.4777 39.0312 36.4777 39.0312 36.4777L21.5 4.52301C21.5 4.52301 21.5 4.52301 21.5 4.52301ZM21.5 0.500732C22.8535 0.500732 24.2071 1.18923 24.9625 2.56623L42.4937 34.5209C43.9646 37.202 42.0547 40.5 39.0312 40.5H3.96881C0.945319 40.5 -0.964584 37.202 0.506296 34.5209L18.0375 2.56623C18.7929 1.18923 20.1465 0.500732 21.5 0.500732Z" fill="#EF0097"/>
<path d="M22.915 18.4961L22.5342 28.1445H20.0342L19.6729 18.4961H22.915ZM21.3135 32.7246C20.7926 32.7246 20.363 32.5684 20.0244 32.2559C19.6859 31.9368 19.5166 31.5527 19.5166 31.1035C19.5166 30.6348 19.6859 30.2507 20.0244 29.9512C20.3695 29.6517 20.7992 29.502 21.3135 29.502C21.8343 29.502 22.2607 29.6549 22.5928 29.9609C22.9248 30.2604 23.0908 30.6413 23.0908 31.1035C23.0908 31.5723 22.9248 31.9596 22.5928 32.2656C22.2673 32.5716 21.8408 32.7246 21.3135 32.7246Z" fill="#EF0097"/>
</svg>
