<svg width="48" height="22" viewBox="0 0 48 22" fill="none" xmlns="http://www.w3.org/2000/svg">
<path d="M22.181 5.14008C10.7995 5.14008 1 14.5658 1 14.5658C1 14.5658 6.05776 22 22.2066 22" stroke="#E8218F" stroke-width="1.5" stroke-miterlimit="10"/>
<path d="M19.6533 5.14008C32.904 5.32618 42.3095 15.2027 42.3095 15.2027C42.3095 15.2027 35.7765 21.9701 19.6533 21.9701" stroke="#E8218F" stroke-width="1.5" stroke-miterlimit="10"/>
<path d="M21.608 21.1501C19.3661 21.1475 17.2168 20.2488 15.6315 18.6512C14.0462 17.0536 13.1542 14.8875 13.1514 12.6281C13.1514 7.92867 16.9452 5.98999 21.608 5.98999C26.2707 5.98999 30.0645 7.95454 30.0645 12.6579C30.0609 14.9148 29.1679 17.0777 27.582 18.671C25.9961 20.2643 23.8472 21.1575 21.608 21.1541" stroke="#E8218F" stroke-width="1.5" stroke-miterlimit="10"/>
<path d="M26.5958 13.0261C26.5958 14.3641 26.0685 15.6472 25.1298 16.5933C24.1911 17.5394 22.9179 18.0709 21.5904 18.0709C20.2629 18.0709 18.9897 17.5394 18.051 16.5933C17.1123 15.6472 16.585 14.3641 16.585 13.0261C16.585 10.2395 18.8245 9.07013 21.5904 9.07013C24.3563 9.07013 26.5958 10.2116 26.5958 13.0261Z" fill="#E8218F" stroke="#E8218F" stroke-width="1.5" stroke-miterlimit="10"/>
<path d="M17.9162 13.5556C19.3417 13.5556 20.4974 12.3909 20.4974 10.9542C20.4974 9.51739 19.3417 8.35266 17.9162 8.35266C16.4906 8.35266 15.335 9.51739 15.335 10.9542C15.335 12.3909 16.4906 13.5556 17.9162 13.5556Z" fill="white"/>
<path d="M47.9729 6.65381C47.9729 6.65381 46.6289 10.5033 39.0156 13.0232L47.9729 6.65381Z" fill="white"/>
<path d="M48.0001 6.65381C47.8337 7.10456 47.6124 7.53279 47.3415 7.92868C47.2101 8.14066 47.0521 8.32676 46.9198 8.51287L46.4458 9.07019C45.7787 9.7599 45.0465 10.3825 44.2596 10.9293C43.4959 11.5083 42.664 11.99 41.7831 12.3634C41.3348 12.5226 40.8874 12.6818 40.4135 12.8152C39.9468 12.9356 39.4707 13.0155 38.9905 13.054L38.9639 12.9744C39.362 12.7185 39.7755 12.4878 40.2021 12.2837C40.6011 12.0452 41.0147 11.8325 41.4404 11.6468C42.257 11.195 43.126 10.8765 43.917 10.3988C44.7226 9.94736 45.474 9.40405 46.1565 8.77959C46.3145 8.62035 46.4992 8.46112 46.6572 8.30188C46.8151 8.14265 46.9731 7.98341 47.1311 7.79731C47.4327 7.44518 47.6974 7.06265 47.9211 6.6558L48.0001 6.65381Z" fill="#E8218F"/>
<path d="M41.9948 5.40582C41.3215 6.70889 40.3437 7.8273 39.1459 8.66456C37.948 9.50183 36.566 10.0328 35.1191 10.2117" fill="white"/>
<path d="M42.0198 5.43167C41.7449 6.11951 41.3723 6.7635 40.9138 7.34348C40.4451 7.93099 39.9054 8.45722 39.3072 8.90995C38.727 9.40722 38.0562 9.78582 37.3323 10.0246C36.6119 10.268 35.8455 10.3405 35.0928 10.2366V10.156C35.4187 9.98824 35.7529 9.83744 36.094 9.70413C36.41 9.54489 36.7527 9.4384 37.0687 9.27917L37.5426 9.06719C37.6956 8.98553 37.854 8.9147 38.0166 8.85521C38.1793 8.79571 38.3377 8.72488 38.4906 8.64323C38.6488 8.57059 38.799 8.48154 38.9389 8.37751C39.5361 8.00396 40.0924 7.56796 40.5988 7.07676C41.1173 6.57098 41.569 6.00001 41.9428 5.37793L42.0198 5.43167Z" fill="#E8218F"/>
<path d="M5.08308 11.4059C5.08308 11.4059 3.29184 16.0257 5.18875 18.0738" stroke="#E8218F" stroke-width="1.5" stroke-miterlimit="10"/>
<path d="M39.0046 11.9901C39.0046 11.9901 40.8749 16.1591 38.3193 18.1764" stroke="#E8218F" stroke-width="1.5" stroke-miterlimit="10"/>
<path d="M16.9941 1.00097C16.9941 1.00097 36.7255 0.655628 45.8407 13.0023" stroke="#E8218F" stroke-width="1.5" stroke-miterlimit="10"/>
</svg>
