<svg xmlns="http://www.w3.org/2000/svg" width="157.65" height="33.5" viewBox="0 0 157.65 33.5">
  <g id="Group_53" data-name="Group 53" transform="translate(-229.75 -2781.75)">
    <rect id="Rectangle_12" data-name="Rectangle 12" width="31" height="31" rx="8" transform="translate(231 2783)" fill="none" stroke="#fff" stroke-linecap="round" stroke-width="2.5"/>
    <path id="Path_17" data-name="Path 17" d="M309.531,304.185V308.4h-2.682s-.789.1-.789.817v2.852l3.333.074-.021,4.135H306.06v12.5h-4.722V316.325l-2.332,0v-4.247H301.3l.023-2.174s-.08-2.6.662-3.756a3.624,3.624,0,0,1,3.322-1.959Z" transform="translate(-53.893 2485.223)" fill="none" stroke="#fff" stroke-miterlimit="10" stroke-width="1.5"/>
    <g id="Group_9" data-name="Group 9" transform="translate(231.097 2572.303)">
      <path id="Path_18" data-name="Path 18" d="M51.68,218.166c-1.336,0-1.723.594-1.723,1.9v2.168h3.565l-.356,3.505H49.957v10.633H45.68V225.74H42.8v-3.505h2.88v-2.109c0-3.533,1.426-5.4,5.406-5.4a20.221,20.221,0,0,1,2.494.147v3.3" fill="#fff"/>
      <path id="Path_19" data-name="Path 19" d="M84.193,248.749c0-3.95,1.871-6.92,5.791-6.92a4.2,4.2,0,0,1,4.068,2.465v-2.168h4.1v14.136h-4.1v-2.136a4.151,4.151,0,0,1-4.068,2.434c-3.92,0-5.791-2.969-5.791-6.919m4.277.059c0,2.109.773,3.5,2.762,3.5,1.753,0,2.644-1.277,2.644-3.3v-1.426c0-2.02-.891-3.3-2.644-3.3-1.989,0-2.762,1.4-2.762,3.505Z" transform="translate(-30.375 -19.891)" fill="#fff"/>
      <path id="Path_20" data-name="Path 20" d="M149.956,241.829a7.8,7.8,0,0,1,4.1.95l-.95,3.029a6.727,6.727,0,0,0-2.851-.653c-2.317,0-3.327,1.336-3.327,3.624v.83c0,2.288,1.009,3.624,3.327,3.624a6.727,6.727,0,0,0,2.851-.653l.95,3.029a7.8,7.8,0,0,1-4.1.95c-5.018,0-7.306-2.7-7.306-7.039v-.653c0-4.336,2.288-7.039,7.306-7.039" transform="translate(-73.271 -19.891)" fill="#fff"/>
      <path id="Path_21" data-name="Path 21" d="M187.614,249.729v-1.247c0-4.009,2.286-6.653,6.95-6.653,4.395,0,6.325,2.673,6.325,6.594v2.257h-9c.089,1.932.95,2.792,3.327,2.792a12.178,12.178,0,0,0,4.544-.86l.771,2.939a13.79,13.79,0,0,1-5.494,1.039c-5.4,0-7.424-2.7-7.424-6.86m4.277-1.842h5.168v-.356c0-1.544-.624-2.762-2.494-2.762-1.932,0-2.673,1.218-2.673,3.118" transform="translate(-106.266 -19.891)" fill="#fff"/>
      <path id="Path_22" data-name="Path 22" d="M258.255,229.824c0,3.95-1.9,6.92-5.821,6.92a4.378,4.378,0,0,1-4.218-2.435v2.138h-4.039V215.212l4.277-.386v9.445a4.266,4.266,0,0,1,3.98-2.257c3.92,0,5.821,2.969,5.821,6.919m-4.277-.089c0-1.991-.773-3.474-2.821-3.474-1.753,0-2.7,1.247-2.7,3.266v1.485c0,2.02.95,3.267,2.7,3.267,2.048,0,2.821-1.485,2.821-3.476Z" transform="translate(-147.773 -0.076)" fill="#fff"/>
      <path id="Path_23" data-name="Path 23" d="M302.414,249.551v-.713c0-4.068,2.316-7.009,7.039-7.009s7.039,2.941,7.039,7.009v.713c0,4.07-2.317,7.009-7.039,7.009s-7.039-2.939-7.039-7.009m9.8-1.009c0-1.871-.773-3.356-2.762-3.356s-2.762,1.485-2.762,3.356v1.306c0,1.871.771,3.356,2.762,3.356s2.762-1.485,2.762-3.356Z" transform="translate(-190.508 -19.891)" fill="#fff"/>
      <path id="Path_24" data-name="Path 24" d="M360.65,249.551v-.713c0-4.068,2.315-7.009,7.039-7.009s7.039,2.941,7.039,7.009v.713c0,4.07-2.317,7.009-7.039,7.009s-7.039-2.939-7.039-7.009m9.8-1.009c0-1.871-.773-3.356-2.762-3.356s-2.762,1.485-2.762,3.356v1.306c0,1.871.771,3.356,2.762,3.356s2.762-1.485,2.762-3.356Z" transform="translate(-233.242 -19.891)" fill="#fff"/>
      <path id="Path_25" data-name="Path 25" d="M423.829,229.052l4.218-6.742h4.544l-4.426,6.979,4.6,7.157h-4.542l-4.4-6.919v6.919h-4.276V215.212l4.276-.387" transform="translate(-276.466 -0.076)" fill="#fff"/>
    </g>
  </g>
</svg>
