<svg width="30" height="30" viewBox="0 0 30 30" fill="none" xmlns="http://www.w3.org/2000/svg">
<path d="M7.74194 1.25H22.2581C25.8435 1.25 28.75 4.15654 28.75 7.74194V22.2581C28.75 25.8435 25.8435 28.75 22.2581 28.75H7.74194C4.15654 28.75 1.25 25.8435 1.25 22.2581V7.74194C1.25 4.15654 4.15654 1.25 7.74194 1.25Z" stroke="white" stroke-width="2.5" stroke-linecap="round"/>
<path d="M23.8427 5.23254V9.31157H21.2472C21.2472 9.31157 20.4837 9.40836 20.4837 10.1022V12.8622L23.7092 12.9338L23.6888 16.9355H20.4837V29.0322H15.914V16.9809H13.6572V12.8709H15.8772L15.8995 10.7671C15.8995 10.7671 15.822 8.25094 16.5401 7.13223C16.8432 6.54566 17.3057 6.05655 17.8744 5.72117C18.4431 5.38579 19.095 5.21776 19.755 5.23641L23.8427 5.23254Z" stroke="white" stroke-width="1.5" stroke-miterlimit="10"/>
</svg>
