<svg width="2045" height="422" viewBox="0 0 2045 422" fill="none" xmlns="http://www.w3.org/2000/svg">
<path d="M323.102 93.2761C311.027 80.0695 295.556 69.5042 276.69 61.5801C258.2 53.6561 237.447 49.6941 214.43 49.6941C191.035 49.6941 169.904 54.0335 151.038 62.7121C132.171 71.0135 116.134 82.5221 102.928 97.2382C89.721 111.954 79.533 129.123 72.3636 148.744C65.1943 167.988 61.6096 188.553 61.6096 210.438C61.6096 232.701 65.1943 253.643 72.3636 273.264C79.533 292.885 89.721 310.054 102.928 324.77C116.134 339.109 132.36 350.429 151.604 358.73C170.848 367.031 192.356 371.182 216.128 371.182C234.994 371.182 252.352 369.484 268.2 366.088C284.048 362.692 297.82 357.787 309.518 351.372V239.87H220.656V192.326H364.986V386.464C343.855 397.784 320.838 406.463 295.934 412.5C271.03 418.537 243.862 421.556 214.43 421.556C183.111 421.556 154.245 416.462 127.832 406.274C101.796 395.709 79.3443 381.181 60.4776 362.692C41.611 343.825 26.895 321.563 16.3296 295.904C5.76431 269.868 0.481641 241.379 0.481641 210.438C0.481641 179.119 5.76431 150.631 16.3296 124.972C27.2723 98.9361 42.177 76.8621 61.0436 58.7501C80.2876 40.2608 102.928 25.9221 128.964 15.7341C155 5.54615 183.3 0.452158 213.864 0.452158C245.937 0.452158 274.426 5.16882 299.33 14.6021C324.611 24.0355 345.553 36.6761 362.156 52.5242L323.102 93.2761ZM477.801 411.368H415.541L589.303 10.6402H640.243L812.307 411.368H748.915L708.163 312.884H517.987L477.801 411.368ZM537.797 263.642H687.787L613.075 75.7301L537.797 263.642ZM1146.21 330.996H1147.34V10.6402H1203.38V411.368H1132.63L920.944 84.2202H919.812V411.368H863.778V10.6402H936.792L1146.21 330.996ZM1357.02 411.368H1300.99V10.6402H1551.16V59.8821H1357.02V184.402H1538.71V232.512H1357.02V411.368ZM1678.72 411.368H1622.68V10.6402H1678.72V411.368ZM2040.66 59.8821L1814.26 361.56H2044.06V411.368H1746.34V362.126L1972.18 59.8821H1750.87V10.6402H2040.66V59.8821Z" fill="white"/>
</svg>
