<svg width="51" height="50" viewBox="0 0 51 50" fill="none" xmlns="http://www.w3.org/2000/svg">
<path d="M50.4766 11.3116C50.4687 11.289 50.4594 11.2669 50.4486 11.2455C50.4342 11.2035 50.4164 11.1628 50.3954 11.1236C50.379 11.0993 50.3609 11.0762 50.341 11.0545C50.3189 11.0225 50.2948 10.9919 50.2687 10.9628C50.2454 10.9413 50.2167 10.9239 50.191 10.9048C50.1624 10.8809 50.1323 10.8588 50.1008 10.8386L40.4205 5.42665C40.2982 5.35808 40.1595 5.32198 40.0183 5.32198C39.8771 5.32198 39.7385 5.35808 39.6162 5.42665L29.9359 10.8415C29.9048 10.8619 29.8753 10.8844 29.8474 10.9088C29.8201 10.9265 29.794 10.9459 29.7692 10.9669C29.7429 10.9953 29.7187 11.0256 29.6969 11.0574C29.6795 11.0806 29.6574 11.1015 29.6425 11.1265C29.6223 11.1659 29.6049 11.2066 29.5905 11.2484C29.5827 11.271 29.5696 11.2913 29.5624 11.3145C29.544 11.3808 29.5346 11.4491 29.5343 11.5177V21.7948L21.4674 26.3054V6.19514C21.4676 6.12611 21.4582 6.05738 21.4393 5.99083C21.4334 5.96761 21.419 5.94671 21.4112 5.92466C21.3986 5.88364 21.3826 5.84366 21.3634 5.80509C21.3491 5.77955 21.3264 5.75923 21.3091 5.73486C21.287 5.70284 21.2628 5.67221 21.2368 5.64315C21.2117 5.6225 21.1856 5.60313 21.1585 5.5851C21.1303 5.56144 21.1008 5.53935 21.07 5.51894L11.3891 0.104669C11.2669 0.0360992 11.1282 0 10.987 0C10.8458 0 10.7071 0.0360992 10.5848 0.104669L0.903347 5.51487C0.871943 5.53482 0.842356 5.55735 0.81491 5.5822C0.787183 5.5999 0.760638 5.61929 0.735436 5.64025C0.709537 5.66874 0.685773 5.699 0.664327 5.73079C0.646401 5.75517 0.624291 5.77549 0.608755 5.80102C0.588103 5.83997 0.57091 5.88055 0.557366 5.92234C0.546338 5.94364 0.536562 5.96554 0.528086 5.98792C0.509627 6.05475 0.500186 6.12363 0.500001 6.19282V38.3923C0.499772 38.5298 0.53695 38.665 0.607776 38.7842C0.678602 38.9033 0.780563 39.0022 0.903347 39.0708L20.2586 49.8953C20.3016 49.9164 20.3464 49.934 20.3924 49.9481C20.4133 49.9556 20.4337 49.9678 20.4558 49.9736C20.5908 50.0088 20.733 50.0088 20.8681 49.9736C20.8884 49.969 20.9051 49.9579 20.9236 49.9521C20.9723 49.9369 21.0195 49.9175 21.0647 49.8941L40.4253 39.0696C40.5478 39.0009 40.6495 38.902 40.7202 38.7828C40.7908 38.6637 40.8278 38.5286 40.8274 38.3911V28.1128L50.0984 22.9278C50.2218 22.8585 50.324 22.7585 50.3946 22.6382C50.4652 22.5178 50.5015 22.3814 50.4999 22.2429V11.5154C50.5007 11.4468 50.4929 11.3784 50.4766 11.3116ZM10.9858 1.68751L19.0479 6.19398L10.9846 10.7039L2.92366 6.19514L10.9858 1.68751ZM19.8582 7.54638V27.2068L15.18 29.8228L11.7931 31.7173V12.0604L16.4713 9.4444L19.8582 7.54638ZM19.8582 47.8568L2.11577 37.9389V7.55045L5.50448 9.44323L10.1815 12.0604V33.072C10.1835 33.1015 10.1875 33.1307 10.1934 33.1597C10.1958 33.1987 10.2012 33.2375 10.2096 33.2758C10.2198 33.3059 10.2326 33.3353 10.2478 33.3634C10.2591 33.397 10.2733 33.4296 10.2902 33.4609C10.3087 33.4874 10.3286 33.5127 10.35 33.537C10.3701 33.5657 10.3923 33.5931 10.4163 33.6188C10.4396 33.6403 10.4683 33.6559 10.494 33.6768C10.5215 33.7 10.5505 33.7215 10.5807 33.7413L19.8457 38.8375L19.8582 47.8568ZM20.6625 37.4885L12.6153 33.0633L21.0694 28.3357L30.3446 23.149L38.4008 27.6537L32.4892 30.9308L20.6625 37.4885ZM39.2134 37.9349L21.4698 47.8603V38.8473L34.6117 31.5623L39.2128 29.0084L39.2134 37.9349ZM39.2134 26.3013L35.8265 24.4137L31.1483 21.7977V12.8701L34.5352 14.7646L39.2134 17.383V26.3013ZM40.0177 16.0207L31.9544 11.5113L40.0171 7.00368L48.0781 11.5107L40.0177 16.0207ZM40.8196 26.3013V17.3824L45.5074 14.7641L48.8937 12.8695V21.7948L40.8196 26.3013Z" fill="#E15A44"/>
</svg>
