<svg width="50" height="50" viewBox="0 0 50 50" fill="none" xmlns="http://www.w3.org/2000/svg">
<path d="M49.0805 18.807C48.2209 15.357 46.5917 12.7567 43.1238 12.7567H38.6489V18.0466C38.6267 20.0278 37.8372 21.9232 36.4464 23.3342C35.0557 24.7453 33.1719 25.5621 31.1913 25.6129H19.2728C17.6848 25.6447 16.1723 26.2965 15.0587 27.429C13.945 28.5615 13.3185 30.0847 13.3132 31.673V43.034C13.3132 46.2704 16.1253 48.1678 19.2728 49.0941C23.1538 50.302 27.3103 50.302 31.1913 49.0941C34.1932 48.2235 37.1509 46.4712 37.1509 43.034V38.4917H25.2428V36.9739H43.1238C46.5946 36.9739 47.8779 34.5524 49.0834 30.9254C50.3335 27.187 50.2772 23.5931 49.0834 18.8058L49.0805 18.807ZM31.9389 41.5162C32.3895 41.5107 32.8316 41.6394 33.2089 41.8859C33.5862 42.1324 33.8817 42.4856 34.0576 42.9005C34.2336 43.3154 34.2821 43.7733 34.197 44.2159C34.1119 44.6585 33.8971 45.0658 33.5799 45.3859C33.2626 45.706 32.8573 45.9245 32.4155 46.0136C31.9737 46.1026 31.5154 46.0582 31.0989 45.886C30.6825 45.7138 30.3266 45.4216 30.0767 45.0465C29.8268 44.6715 29.6942 44.2305 29.6956 43.7798C29.6935 43.1823 29.9285 42.6084 30.3491 42.184C30.7696 41.7596 31.3414 41.5194 31.9389 41.5162ZM18.7255 24.1178H30.6452C31.4343 24.1112 32.2145 23.9492 32.941 23.641C33.6675 23.3329 34.3263 22.8846 34.8796 22.3219C35.4329 21.7592 35.8699 21.0929 36.1657 20.3613C36.4615 19.6296 36.6103 18.8468 36.6036 18.0577V6.68562C36.6036 3.44924 33.8803 1.02776 30.644 0.480427C26.697 -0.163822 22.6713 -0.160097 18.7255 0.491455C13.6818 1.38471 12.7688 3.24842 12.7688 6.69723V11.2395H24.6961V12.7573H8.29162C4.82082 12.7573 1.78532 14.8468 0.836949 18.8058C-0.256526 23.3481 -0.301217 26.1823 0.836949 30.9254C1.68317 34.452 3.70471 36.9739 7.17551 36.9739H11.2714V31.5279C11.3145 29.5685 12.1151 27.7021 13.5049 26.3204C14.8948 24.9387 16.766 24.1493 18.7255 24.1178ZM17.9779 8.2034C17.5273 8.20893 17.0852 8.08025 16.7079 7.83374C16.3306 7.58723 16.0352 7.23404 15.8592 6.81912C15.6833 6.40419 15.6347 5.94629 15.7198 5.5037C15.8049 5.06111 16.0197 4.65384 16.3369 4.33372C16.6542 4.0136 17.0595 3.79511 17.5013 3.70605C17.9431 3.61698 18.4014 3.66139 18.8179 3.8336C19.2344 4.00581 19.5902 4.29804 19.8401 4.6731C20.09 5.04817 20.2226 5.4891 20.2212 5.93979C20.2233 6.53728 19.9883 7.11122 19.5678 7.53562C19.1472 7.96001 18.5754 8.20018 17.9779 8.2034Z" fill="#4A73A2"/>
</svg>
