<svg width="45" height="50" viewBox="0 0 45 50" fill="none" xmlns="http://www.w3.org/2000/svg">
<path d="M44.5 7.14277V11.6086C44.5 15.5428 34.6458 18.7514 22.5003 18.7514C10.3548 18.7514 0.5 15.541 0.5 11.6086V7.14277C0.5 3.20862 10.3542 0 22.5003 0C34.6463 0 44.5 3.20862 44.5 7.14277ZM44.5 17.1871V27.232C44.5 31.1662 34.6458 34.3748 22.5003 34.3748C10.3548 34.3748 0.5 31.1691 0.5 27.232V17.1877C5.22836 20.4242 13.8778 21.931 22.5003 21.931C31.1228 21.931 39.7734 20.4242 44.5 17.1877V17.1871ZM44.5 32.8123V42.8572C44.5 46.7914 34.6458 50 22.5003 50C10.3548 50 0.5 46.7914 0.5 42.8572V32.8123C5.22836 36.0488 13.8778 37.5538 22.5003 37.5538C31.1228 37.5538 39.7734 36.0488 44.5 32.8123Z" fill="#3D6289"/>
</svg>
