<svg width="58" height="50" viewBox="0 0 58 50" fill="none" xmlns="http://www.w3.org/2000/svg">
<path d="M47.3738 16.203C46.7622 16.0022 46.1505 15.8124 45.5385 15.6336C45.6404 15.2209 45.7312 14.8076 45.8219 14.3949C47.2153 7.74344 46.298 2.39741 43.2054 0.633977C40.226 -1.04935 35.3665 0.70073 30.4499 4.9195C29.9627 5.33221 29.4872 5.76756 29.0359 6.2029C28.7302 5.91267 28.4132 5.62244 28.0933 5.34382C22.9392 0.834817 17.7734 -1.06212 14.6809 0.71234C11.7126 2.40902 10.8295 7.44218 12.0756 13.7367C12.2005 14.3618 12.336 14.9754 12.4945 15.6005C11.7692 15.8014 11.0557 16.0248 10.3876 16.2588C4.33863 18.3235 0 21.5851 0 24.9517C0 28.4345 4.62202 31.9271 10.909 34.0475C11.4187 34.2147 11.9283 34.3824 12.4497 34.5275C12.28 35.1974 12.1327 35.8556 11.9966 36.5365C10.8071 42.7306 11.7362 47.6413 14.7068 49.3263C17.7652 51.0677 22.9086 49.2816 27.9153 44.9625C28.3119 44.6142 28.7084 44.2595 29.1049 43.8799C29.6033 44.3599 30.1241 44.8173 30.6455 45.2637C35.4938 49.371 40.2855 51.034 43.2425 49.3484C46.3009 47.607 47.2978 42.3283 46.0063 35.8997C45.9042 35.4087 45.7909 34.9056 45.6664 34.3906C46.0287 34.2901 46.3798 34.1787 46.731 34.0667C53.2649 31.9399 58 28.4925 58 24.9517C58 21.57 53.5365 18.2886 47.3744 16.2019L47.3738 16.203ZM32.0472 6.72531C36.2615 3.10905 40.1918 1.69157 41.9817 2.70738C43.8959 3.78993 44.633 8.16369 43.4317 13.9102C43.3521 14.2899 43.2732 14.6579 43.1712 15.0265C40.6595 14.4658 38.1125 14.0706 35.5474 13.8435C34.0759 11.7633 32.4636 9.78335 30.7215 7.91699C31.1634 7.50893 31.5941 7.11828 32.0472 6.72531ZM18.9406 30.7453C19.5185 31.7164 20.1071 32.6875 20.7304 33.636C18.9649 33.4468 17.2106 33.1674 15.4745 32.7989C16.0045 31.1137 16.6209 29.4561 17.3215 27.8325C17.8418 28.8147 18.3744 29.7858 18.9406 30.7453ZM15.5081 17.3193C17.1395 16.9623 18.8722 16.6721 20.6739 16.4486C20.0735 17.3773 19.4844 18.3235 18.9294 19.2835C18.3744 20.232 17.8306 21.2031 17.3209 22.1858C16.6075 20.5228 16.0071 18.8935 15.5087 17.3198L15.5081 17.3193ZM18.6118 25.0098C19.3595 23.4698 20.1749 21.9629 21.0362 20.4787C21.8976 18.9945 22.8261 17.5543 23.8 16.1374C25.4992 16.0144 27.2325 15.9476 28.9994 15.9476C30.7663 15.9476 32.5108 16.0144 34.1988 16.1374C35.1615 17.5437 36.079 18.9834 36.9514 20.4566C37.8238 21.9298 38.6431 23.4329 39.4094 24.9657C38.651 26.5043 37.8357 28.0216 36.9638 29.5176C36.103 31.0018 35.1851 32.442 34.2224 33.871C32.5344 33.9941 30.7787 34.0498 29 34.0498C27.2213 34.0498 25.4998 33.9918 23.8342 33.8937C22.8487 32.4762 21.9198 31.0251 21.0474 29.5402C20.1749 28.056 19.3706 26.5491 18.6118 25.0092V25.0098ZM39.07 30.7238C39.648 29.7417 40.1895 28.7502 40.7238 27.7437C41.447 29.3586 42.0859 31.0089 42.638 32.6881C40.881 33.0804 39.1036 33.3784 37.3137 33.5808C37.9253 32.6434 38.5033 31.6833 39.0695 30.7238H39.07ZM40.7015 22.1858C40.1712 21.2037 39.625 20.2216 39.0589 19.2615C38.5039 18.313 37.9261 17.3756 37.3255 16.4492C39.0728 16.6601 40.8082 16.958 42.5249 17.3419C42.0035 18.9866 41.395 20.6032 40.702 22.1853L40.7015 22.1858ZM29.0224 9.6276C30.2108 10.9002 31.33 12.2338 32.3753 13.6229C30.1324 13.5225 27.8782 13.5225 25.6353 13.6229C26.7482 12.1851 27.89 10.8466 29.0224 9.6276ZM15.884 2.78632C17.787 1.69273 22.0113 3.25533 26.4642 7.13976C26.7476 7.38529 27.0304 7.65288 27.325 7.92106C25.5719 9.78696 23.9483 11.7669 22.465 13.8475C19.9047 14.0727 17.3619 14.4605 14.8523 15.0085C14.705 14.439 14.5807 13.8591 14.4558 13.2787C13.3912 7.87694 14.0935 3.80328 15.8834 2.78748L15.884 2.78632ZM13.1066 32.2075C12.6306 32.0734 12.1639 31.9283 11.702 31.7721C9.1365 31.0269 6.72177 29.8485 4.56546 28.2894C3.99972 27.9039 3.51926 27.4094 3.15317 26.8357C2.78707 26.262 2.54297 25.6211 2.43562 24.9517C2.43562 22.9091 6.0154 20.2976 11.1806 18.5231C11.8287 18.2997 12.4833 18.0988 13.1402 17.909C13.9103 20.332 14.8374 22.7038 15.9158 25.0098C14.8263 27.3482 13.888 29.7523 13.1066 32.2075ZM26.3152 43.145C24.4477 44.8318 22.2823 46.167 19.9262 47.0846C19.3055 47.378 18.6302 47.5422 17.9422 47.5672C17.2543 47.5922 16.5685 47.4773 15.9276 47.2297C14.1265 46.2029 13.3788 42.2633 14.3957 36.962C14.5206 36.3368 14.6561 35.7123 14.8146 35.0981C17.3501 35.6356 19.92 36.001 22.5062 36.1917C24.0043 38.2808 25.639 40.2716 27.3998 42.1513C27.0375 42.4996 26.6746 42.8322 26.3122 43.1445L26.3152 43.145ZM29.0907 40.4331C27.9354 39.2055 26.78 37.8437 25.6582 36.3821C26.7458 36.4268 27.867 36.4489 29 36.4489C30.1665 36.4489 31.3107 36.4268 32.4437 36.3705C31.4017 37.7836 30.2824 39.1399 29.0907 40.4331ZM43.8965 43.7812C43.8443 44.4586 43.6514 45.1181 43.3299 45.719C43.0083 46.3199 42.5649 46.8493 42.0271 47.2744C40.226 48.3013 36.3858 46.9621 32.2398 43.4573C31.7638 43.0556 31.2883 42.6203 30.8011 42.1739C32.5324 40.2906 34.1297 38.2918 35.5816 36.1917C38.1815 35.9793 40.763 35.5877 43.3073 35.0198C43.4205 35.4772 43.5224 35.9352 43.6131 36.3815C44.1662 38.8102 44.2623 41.3183 43.8965 43.7812ZM45.9586 31.7837C45.6416 31.8841 45.3241 31.9846 44.9959 32.0739C44.1971 29.6383 43.2318 27.2588 42.1066 24.9517C43.1895 22.6752 44.1168 20.33 44.8822 17.9316C45.4714 18.0988 46.0375 18.2799 46.5813 18.4541C51.8603 20.2396 55.5644 22.8957 55.5644 24.9273C55.5644 27.118 51.6111 29.9437 45.958 31.7831L45.9586 31.7837ZM29 30.1091C30.0261 30.1091 31.0292 29.8093 31.8824 29.2477C32.7356 28.686 33.4006 27.8877 33.7933 26.9537C34.186 26.0197 34.2887 24.9919 34.0885 24.0004C33.8883 23.0088 33.3942 22.098 32.6686 21.3832C31.943 20.6683 31.0186 20.1815 30.0122 19.9843C29.0058 19.787 27.9626 19.8883 27.0146 20.2751C26.0665 20.662 25.2562 21.3172 24.6862 22.1578C24.1161 22.9983 23.8118 23.9866 23.8118 24.9976C23.8113 25.669 23.9452 26.3338 24.2058 26.9542C24.4663 27.5746 24.8485 28.1382 25.3303 28.613C25.8122 29.0877 26.3843 29.4642 27.014 29.7209C27.6437 29.9777 28.3185 30.1096 29 30.1091Z" fill="#7ED0EF"/>
</svg>
