<svg width="38" height="50" viewBox="0 0 38 50" fill="none" xmlns="http://www.w3.org/2000/svg">
<path d="M27.6618 30.556C28.4113 30.0878 29.1992 29.6801 30.0175 29.3371C30.0175 29.3371 26.1217 30.0208 22.2456 30.3331C17.5043 30.7139 12.41 30.7922 9.85333 30.4602C3.80288 29.679 13.1753 27.5209 13.1753 27.5209C10.3573 27.5094 7.5766 28.1459 5.06119 29.3783C-0.223377 31.855 18.1488 32.9874 27.6618 30.556ZM19.0648 27.4217C17.1501 23.2519 10.6994 19.59 19.0648 13.1838C29.4999 5.1954 24.1483 0 24.1483 0C26.3126 8.25193 16.5404 10.7518 13.0042 15.8787C10.5983 19.3863 14.1823 23.1439 19.0648 27.4211V27.4217ZM30.6015 10.2155C30.6117 10.2155 12.9641 14.4927 21.3906 23.9066C23.8773 26.6799 20.736 29.1798 20.736 29.1798C20.736 29.1798 27.0479 26.0159 24.1466 22.0609C21.4402 18.3688 19.3664 16.5329 30.6015 10.2155ZM29.9876 36.6308C29.9326 36.7237 29.865 36.809 29.7865 36.8844C42.7024 33.5934 37.9509 25.2759 31.7796 27.3828C31.4462 27.5016 31.1582 27.7162 30.9539 27.9981C31.3144 27.8725 31.6848 27.7754 32.0614 27.7078C35.1824 27.0729 39.6604 31.7604 29.9876 36.6337V36.6308ZM34.7348 42.7148C34.7348 42.7148 36.1948 43.8756 33.1343 44.7852C27.3058 46.4939 8.89358 47.0117 3.77954 44.8537C1.93724 44.0823 5.39028 42.9963 6.47747 42.7734C7.06091 42.6376 7.65938 42.5721 8.25934 42.5784C6.216 41.1819 -4.95867 45.3226 2.58166 46.5038C23.1419 49.7426 40.0703 45.0481 34.7348 42.7142V42.7148ZM12.2293 38.671C4.30668 40.8185 17.0514 45.253 27.1383 41.0635C26.1544 40.6927 25.2046 40.2418 24.2991 39.7157C19.799 40.5457 17.7174 40.6044 13.6283 40.1551C10.256 39.7842 12.2287 38.671 12.2287 38.671H12.2293ZM30.3292 48.1633C22.5662 49.4557 14.6436 49.5743 6.84306 48.515C6.84306 48.5051 8.03077 49.4623 14.1315 49.843C23.413 50.4194 37.6679 49.5209 38 45.2629C38 45.2629 37.3556 46.8741 30.3292 48.165V48.1633ZM25.9404 34.4721C21.4188 35.4286 16.7644 35.6461 12.1689 35.1158C8.79665 34.774 11.0009 33.1923 11.0009 33.1923C2.26513 36.0045 15.8529 39.1881 28.0645 35.7218C27.2753 35.4514 26.5521 35.0258 25.9404 34.4716V34.4721Z" fill="#C7573F"/>
</svg>
