<svg width="52" height="50" viewBox="0 0 52 50" fill="none" xmlns="http://www.w3.org/2000/svg">
<path d="M33.7726 31.2422C33.7726 35.9756 29.2512 35.8659 28.7728 35.8659H19.5666V26.7485H28.7752C33.6204 26.7485 33.7726 30.3089 33.7726 31.2422ZM28.0659 23.0802C28.1423 23.0802 32.4417 23.1917 32.4417 19.0277C32.4417 17.2957 32.0421 15.0227 28.0659 15.0227H19.5666V23.0802H28.0659ZM51.5 8.33382V41.6662C51.4934 43.8745 50.5957 45.9905 49.003 47.552C47.4103 49.1135 45.252 49.9936 42.9995 50H9.00049C6.74804 49.9936 4.58972 49.1135 2.99698 47.552C1.40425 45.9905 0.50656 43.8745 0.5 41.6662L0.5 8.33382C0.50656 6.12553 1.40425 4.00953 2.99698 2.44802C4.58972 0.886522 6.74804 0.0064315 9.00049 0H42.9995C45.252 0.0064315 47.4103 0.886522 49.003 2.44802C50.5957 4.00953 51.4934 6.12553 51.5 8.33382ZM38.9825 31.9039C38.9825 29.4963 38.2253 25.3985 33.399 24.3874V24.3061C34.6829 23.8394 35.7843 22.9884 36.5473 21.8737C37.3102 20.759 37.696 19.4371 37.6498 18.0955C37.6498 17.3142 37.8778 10.8657 28.816 10.8657H14.359V40.0323C28.9563 40.0323 30.2819 40.2198 32.9834 39.3938C34.6014 38.9016 38.9825 37.3884 38.9825 31.9039Z" fill="#563D81"/>
</svg>
