<svg width="98" height="50" viewBox="0 0 98 50" fill="none" xmlns="http://www.w3.org/2000/svg">
<path d="M49 2.49588C74.9778 2.49588 94.9564 13.2206 94.9564 25.0006C94.9564 36.7806 74.9654 47.5053 49 47.5053C23.0222 47.5053 3.04359 36.7806 3.04359 25.0006C3.04359 13.2206 23.037 2.49588 49 2.49588ZM49 0C22.2185 0 0.5 11.1856 0.5 25C0.5 38.8144 22.2185 50 49 50C75.7815 50 97.5 38.8144 97.5 25C97.5 11.1856 75.7809 0 49 0ZM33.5709 22.9946C32.3734 29.0108 28.1449 28.3869 22.9464 28.3869L25.0227 17.8995C30.7821 17.8995 34.6925 17.2906 33.5709 22.9946ZM15.2623 39.0054H20.8245L22.1433 32.3507C28.3723 32.3507 32.2372 32.7964 35.8142 29.5135C39.7702 25.9484 40.8007 19.6054 37.9817 16.4264C36.5118 14.7628 34.1471 13.9456 30.9343 13.9456H20.221L15.2623 39.0054ZM43.4071 7.27868H48.939L47.6201 13.9334C52.394 13.9334 56.8197 13.5915 58.957 15.5226C61.2004 17.5431 60.1243 20.1278 57.6992 32.3234H52.0914C54.4253 20.5289 54.8648 19.5485 54.0161 18.657C53.1977 17.7956 51.3334 17.9738 46.8319 17.9738L43.9827 32.3234H38.4508L43.4071 7.27868ZM77.0387 22.9946C75.8265 29.0996 71.4766 28.3869 66.4143 28.3869L68.4906 17.8995C74.2802 17.8995 78.1604 17.2906 77.0387 22.9946ZM58.7302 39.0054H64.3078L65.6266 32.3507C72.1742 32.3507 75.7963 32.7221 79.2975 29.5135C83.2535 25.9484 84.284 19.6054 81.465 16.4264C79.9951 14.7628 77.6304 13.9456 74.4176 13.9456H63.7013L58.7302 39.0054Z" fill="#7478A8"/>
</svg>
