<svg width="51" height="50" viewBox="0 0 51 50" fill="none" xmlns="http://www.w3.org/2000/svg">
<path d="M45.5359 0H5.46412C4.01509 0.000462315 2.62554 0.565005 1.60092 1.56953C0.576305 2.57406 0.000471561 3.93636 0 5.35698V44.6424C0.000314371 46.0632 0.576078 47.4256 1.60071 48.4303C2.62535 49.4349 4.01498 49.9995 5.46412 50H45.5359C46.9849 49.9995 48.3745 49.435 49.3991 48.4305C50.4237 47.4259 50.9995 46.0636 51 44.643V5.35698C50.9995 3.93636 50.4237 2.57406 49.3991 1.56953C48.3745 0.565005 46.9849 0.000462315 45.5359 0ZM27.7535 38.9953C27.7535 43.8616 24.8394 46.0826 20.5927 46.0826C16.7565 46.0826 14.5368 44.1407 13.3982 41.7855L17.3038 39.4767C18.0552 40.7826 18.7383 41.8872 20.3875 41.8872C21.9585 41.8872 22.9601 41.2843 22.9601 38.9296V22.9576H27.7535V38.9953ZM39.0921 46.0826C34.6409 46.0826 31.7611 44.0064 30.3604 41.2837L34.2649 39.0744C35.2896 40.7151 36.6328 41.9314 38.9895 41.9314C40.9702 41.9314 42.2452 40.9605 42.2452 39.6099C42.2452 38.0029 40.9477 37.4337 38.7505 36.4849L37.555 35.9826C34.0941 34.543 31.8062 32.7238 31.8062 28.8953C31.8062 25.3686 34.5495 22.6901 38.8187 22.6901C41.8698 22.6901 44.0551 23.7279 45.626 26.4512L41.89 28.7948C41.0704 27.3552 40.1827 26.786 38.8063 26.786C37.4061 26.786 36.5184 27.6581 36.5184 28.7948C36.5184 30.2012 37.4079 30.7715 39.4669 31.6517L40.6624 32.1541C44.7389 33.8616 47.0267 35.614 47.0267 39.5424C47.0267 43.761 43.6341 46.0826 39.0921 46.0826Z" fill="#EBD94F"/>
</svg>
