<svg width="41" height="51" viewBox="0 0 41 51" fill="none" xmlns="http://www.w3.org/2000/svg">
<g clip-path="url(#clip0_60_467)">
<path d="M39 13.3123V45.1875C39 46.7291 38.3911 48.2075 37.3073 49.2976C36.2234 50.3876 34.7534 51 33.2206 51H9.77937C9.02041 51 8.26889 50.8497 7.5677 50.5576C6.86652 50.2655 6.2294 49.8373 5.69274 49.2976C5.15607 48.7579 4.73038 48.1171 4.43994 47.4119C4.1495 46.7067 4 45.9508 4 45.1875V7.81249C4 7.04918 4.1495 6.29335 4.43994 5.58814C4.73038 4.88294 5.15607 4.24217 5.69274 3.70243C6.2294 3.16269 6.86652 2.73455 7.5677 2.44245C8.26889 2.15034 9.02041 2 9.77937 2H28.7007" stroke="#DC2F89" stroke-miterlimit="10"/>
<path d="M30.0071 43H2.99293C2.46437 43 1.95746 42.7943 1.58371 42.4281C1.20997 42.0619 1 41.5653 1 41.0475V28.9525C1 28.4347 1.20997 27.9381 1.58371 27.5719C1.95746 27.2057 2.46437 27 2.99293 27H30.0071C30.5356 27 31.0425 27.2057 31.4163 27.5719C31.79 27.9381 32 28.4347 32 28.9525V41.0465C32.0001 41.303 31.9487 41.557 31.8486 41.794C31.7485 42.031 31.6017 42.2464 31.4166 42.4278C31.2316 42.6092 31.0118 42.7531 30.77 42.8513C30.5281 42.9495 30.2689 43 30.0071 43Z" fill="#DC2F89" stroke="#DC2F89" stroke-miterlimit="10"/>
<path d="M7.77148 38V30.8418H10.4717C10.9469 30.8418 11.3099 30.8646 11.5605 30.9102C11.9121 30.9688 12.2067 31.0811 12.4443 31.2471C12.682 31.4098 12.8724 31.6393 13.0156 31.9355C13.1621 32.2318 13.2354 32.5573 13.2354 32.9121C13.2354 33.5208 13.0417 34.0368 12.6543 34.46C12.2669 34.8799 11.5671 35.0898 10.5547 35.0898H8.71875V38H7.77148ZM8.71875 34.2451H10.5693C11.1813 34.2451 11.6159 34.1312 11.873 33.9033C12.1302 33.6755 12.2588 33.3548 12.2588 32.9414C12.2588 32.6419 12.1823 32.3864 12.0293 32.1748C11.8796 31.96 11.681 31.8184 11.4336 31.75C11.2741 31.7077 10.9795 31.6865 10.5498 31.6865H8.71875V34.2451ZM14.4414 38V30.8418H16.9072C17.4639 30.8418 17.8887 30.876 18.1816 30.9443C18.5918 31.0387 18.9417 31.2096 19.2314 31.457C19.609 31.776 19.8906 32.1846 20.0762 32.6826C20.265 33.1774 20.3594 33.7438 20.3594 34.3818C20.3594 34.9255 20.2959 35.4072 20.1689 35.8271C20.042 36.2471 19.8792 36.5954 19.6807 36.8721C19.4821 37.1455 19.264 37.362 19.0264 37.5215C18.792 37.6777 18.5072 37.7965 18.1719 37.8779C17.8398 37.9593 17.4574 38 17.0244 38H14.4414ZM15.3887 37.1553H16.917C17.389 37.1553 17.7585 37.1113 18.0254 37.0234C18.2956 36.9355 18.5104 36.8118 18.6699 36.6523C18.8945 36.4277 19.0687 36.1266 19.1924 35.749C19.3193 35.3682 19.3828 34.9076 19.3828 34.3672C19.3828 33.6185 19.2591 33.0439 19.0117 32.6436C18.7676 32.2399 18.4697 31.9697 18.1182 31.833C17.8643 31.7354 17.4557 31.6865 16.8926 31.6865H15.3887V37.1553ZM21.7168 38V30.8418H26.5459V31.6865H22.6641V33.9033H26.0234V34.748H22.6641V38H21.7168Z" fill="white"/>
<path d="M7.77148 38H7.27148V38.5H7.77148V38ZM7.77148 30.8418V30.3418H7.27148V30.8418H7.77148ZM11.5605 30.9102L11.4711 31.4021L11.4783 31.4034L11.5605 30.9102ZM12.4443 31.2471L12.158 31.657L12.1618 31.6596L12.4443 31.2471ZM13.0156 31.9355L12.5655 32.1532L12.5674 32.1572L13.0156 31.9355ZM12.6543 34.46L13.0218 34.799L13.0231 34.7976L12.6543 34.46ZM8.71875 35.0898V34.5898H8.21875V35.0898H8.71875ZM8.71875 38V38.5H9.21875V38H8.71875ZM8.71875 34.2451H8.21875V34.7451H8.71875V34.2451ZM11.873 33.9033L11.5415 33.5291L11.873 33.9033ZM12.0293 32.1748L11.619 32.4607L11.6241 32.4678L12.0293 32.1748ZM11.4336 31.75L11.5668 31.268L11.5618 31.2667L11.4336 31.75ZM8.71875 31.6865V31.1865H8.21875V31.6865H8.71875ZM8.27148 38V30.8418H7.27148V38H8.27148ZM7.77148 31.3418H10.4717V30.3418H7.77148V31.3418ZM10.4717 31.3418C10.9379 31.3418 11.2652 31.3647 11.4711 31.4021L11.65 30.4182C11.3546 30.3645 10.956 30.3418 10.4717 30.3418V31.3418ZM11.4783 31.4034C11.773 31.4525 11.9937 31.5422 12.158 31.6569L12.7307 30.8372C12.4197 30.6199 12.0512 30.485 11.6427 30.417L11.4783 31.4034ZM12.1618 31.6596C12.3178 31.7664 12.4547 31.9241 12.5655 32.1532L13.4658 31.7179C13.2901 31.3546 13.0461 31.0532 12.7269 30.8346L12.1618 31.6596ZM12.5674 32.1572C12.6774 32.3795 12.7354 32.6284 12.7354 32.9121H13.7354C13.7354 32.4862 13.6469 32.0841 13.4638 31.7139L12.5674 32.1572ZM12.7354 32.9121C12.7354 33.4042 12.583 33.7973 12.2855 34.1224L13.0231 34.7976C13.5003 34.2762 13.7354 33.6375 13.7354 32.9121H12.7354ZM12.2868 34.1209C12.0455 34.3825 11.5278 34.5898 10.5547 34.5898V35.5898C11.6063 35.5898 12.4883 35.3773 13.0218 34.799L12.2868 34.1209ZM10.5547 34.5898H8.71875V35.5898H10.5547V34.5898ZM8.21875 35.0898V38H9.21875V35.0898H8.21875ZM8.71875 37.5H7.77148V38.5H8.71875V37.5ZM8.71875 34.7451H10.5693V33.7451H8.71875V34.7451ZM10.5693 34.7451C11.2174 34.7451 11.8074 34.6295 12.2046 34.2775L11.5415 33.5291C11.4244 33.6328 11.1452 33.7451 10.5693 33.7451V34.7451ZM12.2046 34.2775C12.5905 33.9356 12.7588 33.4662 12.7588 32.9414H11.7588C11.7588 33.2434 11.6699 33.4153 11.5415 33.5291L12.2046 34.2775ZM12.7588 32.9414C12.7588 32.5528 12.6579 32.1908 12.4345 31.8818L11.6241 32.4678C11.7067 32.582 11.7588 32.7311 11.7588 32.9414H12.7588ZM12.4395 31.8889C12.2246 31.5805 11.929 31.3682 11.5668 31.2681L11.3004 32.2319C11.433 32.2686 11.5345 32.3394 11.6191 32.4607L12.4395 31.8889ZM11.5618 31.2667C11.3312 31.2055 10.9752 31.1865 10.5498 31.1865V32.1865C10.9838 32.1865 11.217 32.2098 11.3054 32.2333L11.5618 31.2667ZM10.5498 31.1865H8.71875V32.1865H10.5498V31.1865ZM8.21875 31.6865V34.2451H9.21875V31.6865H8.21875ZM14.4414 38H13.9414V38.5H14.4414V38ZM14.4414 30.8418V30.3418H13.9414V30.8418H14.4414ZM18.1816 30.9443L18.068 31.4313L18.0695 31.4316L18.1816 30.9443ZM19.2314 31.457L18.9067 31.8373L18.9088 31.839L19.2314 31.457ZM20.0762 32.6826L19.6076 32.8572L19.609 32.8609L20.0762 32.6826ZM19.6807 36.8721L20.0852 37.1659L20.0869 37.1636L19.6807 36.8721ZM19.0264 37.5215L19.3037 37.9375L19.305 37.9366L19.0264 37.5215ZM18.1719 37.8779L18.0539 37.392L18.0528 37.3923L18.1719 37.8779ZM15.3887 37.1553H14.8887V37.6553H15.3887V37.1553ZM18.0254 37.0234L17.8707 36.548L17.869 36.5485L18.0254 37.0234ZM18.6699 36.6523L18.3164 36.2988L18.6699 36.6523ZM19.1924 35.749L18.718 35.5909L18.7172 35.5934L19.1924 35.749ZM19.0117 32.6436L18.5839 32.9023L18.5864 32.9064L19.0117 32.6436ZM18.1182 31.833L18.2994 31.367L18.2977 31.3663L18.1182 31.833ZM15.3887 31.6865V31.1865H14.8887V31.6865H15.3887ZM14.9414 38V30.8418H13.9414V38H14.9414ZM14.4414 31.3418H16.9072V30.3418H14.4414V31.3418ZM16.9072 31.3418C17.4521 31.3418 17.8314 31.376 18.068 31.4313L18.2953 30.4574C17.946 30.3759 17.4756 30.3418 16.9072 30.3418V31.3418ZM18.0695 31.4316C18.4096 31.5099 18.6844 31.6474 18.9068 31.8373L19.5561 31.0768C19.199 30.7718 18.774 30.5676 18.2938 30.4571L18.0695 31.4316ZM18.9088 31.839C19.2158 32.0984 19.4498 32.4334 19.6076 32.8572L20.5447 32.5081C20.3315 31.9357 20.0023 31.4537 19.5541 31.0751L18.9088 31.839ZM19.609 32.8609C19.7722 33.2884 19.8594 33.7926 19.8594 34.3818H20.8594C20.8594 33.695 20.7578 33.0664 20.5433 32.5044L19.609 32.8609ZM19.8594 34.3818C19.8594 34.8876 19.8002 35.3191 19.6903 35.6825L20.6476 35.9718C20.7916 35.4954 20.8594 34.9633 20.8594 34.3818H19.8594ZM19.6903 35.6825C19.5749 36.0642 19.4333 36.3592 19.2744 36.5805L20.0869 37.1636C20.3252 36.8315 20.509 36.43 20.6476 35.9718L19.6903 35.6825ZM19.2761 36.5783C19.1059 36.8126 18.9286 36.9849 18.7477 37.1063L19.305 37.9366C19.5994 37.7391 19.8583 37.4784 20.0852 37.1659L19.2761 36.5783ZM18.749 37.1055C18.5728 37.2229 18.3448 37.3215 18.0539 37.392L18.2898 38.3638C18.6696 38.2716 19.0111 38.1326 19.3037 37.9375L18.749 37.1055ZM18.0528 37.3923C17.7685 37.462 17.4273 37.5 17.0244 37.5V38.5C17.4874 38.5 17.9112 38.4566 18.2909 38.3636L18.0528 37.3923ZM17.0244 37.5H14.4414V38.5H17.0244V37.5ZM15.3887 37.6553H16.917V36.6553H15.3887V37.6553ZM16.917 37.6553C17.4112 37.6553 17.8416 37.6104 18.1818 37.4984L17.869 36.5485C17.6753 36.6123 17.3668 36.6553 16.917 36.6553V37.6553ZM18.1801 37.4989C18.5062 37.3928 18.7956 37.2337 19.0235 37.0059L18.3164 36.2988C18.2252 36.39 18.0849 36.4783 17.8707 36.548L18.1801 37.4989ZM19.0235 37.0059C19.3158 36.7136 19.5254 36.3386 19.6675 35.9047L18.7172 35.5934C18.612 35.9147 18.4733 36.1419 18.3164 36.2988L19.0235 37.0059ZM19.6667 35.9071C19.8154 35.4611 19.8828 34.9439 19.8828 34.3672H18.8828C18.8828 34.8712 18.8233 35.2752 18.718 35.5909L19.6667 35.9071ZM19.8828 34.3672C19.8828 33.5755 19.7541 32.8939 19.4371 32.3807L18.5864 32.9064C18.7641 33.194 18.8828 33.6614 18.8828 34.3672H19.8828ZM19.4395 32.3848C19.1529 31.9108 18.7772 31.5528 18.2994 31.367L17.9369 32.299C18.1622 32.3866 18.3823 32.569 18.5839 32.9023L19.4395 32.3848ZM18.2977 31.3663C17.9527 31.2337 17.4657 31.1865 16.8926 31.1865V32.1865C17.4458 32.1865 17.7758 32.237 17.9387 32.2997L18.2977 31.3663ZM16.8926 31.1865H15.3887V32.1865H16.8926V31.1865ZM14.8887 31.6865V37.1553H15.8887V31.6865H14.8887ZM21.7168 38H21.2168V38.5H21.7168V38ZM21.7168 30.8418V30.3418H21.2168V30.8418H21.7168ZM26.5459 30.8418H27.0459V30.3418H26.5459V30.8418ZM26.5459 31.6865V32.1865H27.0459V31.6865H26.5459ZM22.6641 31.6865V31.1865H22.1641V31.6865H22.6641ZM22.6641 33.9033H22.1641V34.4033H22.6641V33.9033ZM26.0234 33.9033H26.5234V33.4033H26.0234V33.9033ZM26.0234 34.748V35.248H26.5234V34.748H26.0234ZM22.6641 34.748V34.248H22.1641V34.748H22.6641ZM22.6641 38V38.5H23.1641V38H22.6641ZM22.2168 38V30.8418H21.2168V38H22.2168ZM21.7168 31.3418H26.5459V30.3418H21.7168V31.3418ZM26.0459 30.8418V31.6865H27.0459V30.8418H26.0459ZM26.5459 31.1865H22.6641V32.1865H26.5459V31.1865ZM22.1641 31.6865V33.9033H23.1641V31.6865H22.1641ZM22.6641 34.4033H26.0234V33.4033H22.6641V34.4033ZM25.5234 33.9033V34.748H26.5234V33.9033H25.5234ZM26.0234 34.248H22.6641V35.248H26.0234V34.248ZM22.1641 34.748V38H23.1641V34.748H22.1641ZM22.6641 37.5H21.7168V38.5H22.6641V37.5Z" fill="white"/>
<path d="M39 13L29 2L29.1602 10.9089C29.234 11.4732 29.5116 11.9904 29.9399 12.3618C30.3682 12.7333 30.9174 12.933 31.4825 12.9228L39 13Z" fill="#DC2F89" stroke="#DC2F89" stroke-miterlimit="10"/>
</g>
<defs>
<clipPath id="clip0_60_467">
<rect width="41" height="51" fill="white"/>
</clipPath>
</defs>
</svg>
