<svg xmlns="http://www.w3.org/2000/svg" width="55" height="55" viewBox="0 0 55 55">
  <g id="Group_14" data-name="Group 14" transform="translate(-1759 -163)">
    <g id="Group_13" data-name="Group 13" transform="translate(1570.668 -433.678)">
      <path id="Ellipse_19" data-name="Ellipse 19" d="M8.38-1A9.38,9.38,0,1,1-1,8.38,9.39,9.39,0,0,1,8.38-1Zm0,16.759A7.38,7.38,0,1,0,1,8.38,7.388,7.388,0,0,0,8.38,15.759Z" transform="translate(207.453 613.345)" fill="#ef0097"/>
      <path id="Path_38" data-name="Path 38" d="M198.394,641.034l-1.869-.712c.729-1.913,2.72-4.132,5.92-6.6a50.2,50.2,0,0,1,4.5-3.085l.754-.448.542.688a7.985,7.985,0,0,0,1.916,1.574,10.016,10.016,0,0,0,5.645,1.426l.067,2a11.752,11.752,0,0,1-8.581-3.1C204.674,634.425,199.493,638.146,198.394,641.034Z" fill="#ef0097"/>
      <path id="Path_39" data-name="Path 39" d="M233.271,641.034c-1.1-2.891-6.28-6.611-8.892-8.258a11.752,11.752,0,0,1-8.58,3.1l.067-2a9.514,9.514,0,0,0,7.56-3l.543-.688.754.448a50.2,50.2,0,0,1,4.5,3.085c3.2,2.464,5.191,4.684,5.92,6.6Z" fill="#ef0097"/>
    </g>
    <path id="Ellipse_20" data-name="Ellipse 20" d="M27.5,4a23.507,23.507,0,0,0-9.146,45.155A23.507,23.507,0,0,0,36.646,5.845,23.349,23.349,0,0,0,27.5,4m0-4A27.5,27.5,0,1,1,0,27.5,27.5,27.5,0,0,1,27.5,0Z" transform="translate(1759 163)" fill="#ef0097"/>
  </g>
</svg>
